<svg t="1664271336985" class="icon" viewBox="0 0 1024 1024" version="1.1" xmlns="http://www.w3.org/2000/svg" p-id="3871" width="200" height="200"><path d="M456.533333 853.333333c-21.333333 0-42.666667-17.066667-42.666667-38.4 0-25.6 17.066667-42.666667 38.4-46.933333 179.2-12.8 315.733333-162.133333 315.733333-341.333333 0-187.733333-153.6-341.333333-341.333333-341.333333s-341.333333 153.6-341.333333 341.333333c0 132.266667 76.8 251.733333 196.266667 307.2 21.333333 8.533333 29.866667 34.133333 21.333333 55.466667-8.533333 21.333333-34.133333 29.866667-55.466667 21.333333C98.133333 742.4 0 593.066667 0 426.666667 0 192 192 0 426.666667 0s426.666667 192 426.666667 426.666667C853.333333 648.533333 678.4 836.266667 456.533333 853.333333 456.533333 853.333333 456.533333 853.333333 456.533333 853.333333z" p-id="3872"></path><path d="M213.333333 1024c-17.066667 0-34.133333-12.8-38.4-29.866667-4.266667-17.066667 0-38.4 17.066667-46.933333 8.533333-8.533333 93.866667-76.8 42.666667-149.333333-12.8-17.066667-8.533333-46.933333 8.533333-59.733333C256 725.333333 281.6 729.6 298.666667 746.666667c42.666667 59.733333 42.666667 119.466667 21.333333 170.666667C362.666667 896 396.8 853.333333 413.866667 797.866667c8.533333-21.333333 29.866667-34.133333 55.466667-29.866667 21.333333 8.533333 34.133333 29.866667 29.866667 51.2C473.6 896 405.333333 1024 213.333333 1024z" p-id="3873"></path><path d="M725.333333 908.8C721.066667 908.8 721.066667 908.8 725.333333 908.8c-85.333333-4.266667-153.6-38.4-200.533333-93.866667-17.066667-17.066667-12.8-46.933333 4.266667-59.733333 17.066667-17.066667 46.933333-12.8 59.733333 4.266667 34.133333 38.4 76.8 59.733333 136.533333 64 25.6 0 42.666667 21.333333 38.4 46.933333C763.733333 891.733333 746.666667 908.8 725.333333 908.8z" p-id="3874"></path><path d="M849.066667 896c-17.066667 0-29.866667-8.533333-38.4-25.6-8.533333-21.333333 0-46.933333 21.333333-55.466667 68.266667-29.866667 110.933333-98.133333 110.933333-174.933333 0-85.333333-55.466667-162.133333-140.8-183.466667-21.333333-8.533333-34.133333-29.866667-29.866667-51.2 4.266667-21.333333 29.866667-34.133333 51.2-29.866667 119.466667 34.133333 200.533333 145.066667 200.533333 268.8 0 106.666667-64 204.8-157.866667 251.733333C857.6 896 853.333333 896 849.066667 896z" p-id="3875"></path><path d="M878.933333 1024c-93.866667 0-162.133333-51.2-187.733333-136.533333-8.533333-21.333333 4.266667-46.933333 29.866667-51.2 21.333333-8.533333 46.933333 4.266667 55.466667 29.866667 4.266667 12.8 8.533333 25.6 17.066667 38.4 0-21.333333 8.533333-46.933333 25.6-72.533333 12.8-17.066667 42.666667-21.333333 59.733333-8.533333 17.066667 12.8 21.333333 42.666667 8.533333 59.733333-25.6 34.133333 17.066667 64 21.333333 68.266667 12.8 12.8 21.333333 29.866667 17.066667 46.933333C913.066667 1011.2 896 1024 878.933333 1024z" p-id="3876"></path><path d="M597.333333 384 256 384C230.4 384 213.333333 366.933333 213.333333 341.333333s17.066667-42.666667 42.666667-42.666667l341.333333 0c25.6 0 42.666667 17.066667 42.666667 42.666667S622.933333 384 597.333333 384z" p-id="3877"></path><path d="M512 554.666667 256 554.666667c-25.6 0-42.666667-17.066667-42.666667-42.666667s17.066667-42.666667 42.666667-42.666667l256 0c25.6 0 42.666667 17.066667 42.666667 42.666667S537.6 554.666667 512 554.666667z" p-id="3878"></path></svg>